<svg height="1022" width="720" xmlns="http://www.w3.org/2000/svg">
<rect height="1022" fill="#555" width="720"></rect>
<text fill="#7f7" font-family="Courier New" font-size="12" xml:space="preserve">
<tspan x="10" y="26">12 megabytes installed</tspan>
<tspan x="10" y="42"></tspan>
<tspan x="10" y="58">node_modules</tspan>
<tspan x="10" y="74">└─┬ tumblr.js@1.1.1 </tspan>
<tspan x="10" y="90">  ├── lodash@4.17.4 </tspan>
<tspan x="10" y="106">  ├─┬ query-string@4.3.4 </tspan>
<tspan x="10" y="122">  │ ├── object-assign@4.1.1 </tspan>
<tspan x="10" y="138">  │ └── strict-uri-encode@1.1.0 </tspan>
<tspan x="10" y="154">  └─┬ request@2.81.0 </tspan>
<tspan x="10" y="170">    ├── aws-sign2@0.6.0 </tspan>
<tspan x="10" y="186">    ├── aws4@1.6.0 </tspan>
<tspan x="10" y="202">    ├── caseless@0.12.0 </tspan>
<tspan x="10" y="218">    ├─┬ combined-stream@1.0.5 </tspan>
<tspan x="10" y="234">    │ └── delayed-stream@1.0.0 </tspan>
<tspan x="10" y="250">    ├── extend@3.0.0 </tspan>
<tspan x="10" y="266">    ├── forever-agent@0.6.1 </tspan>
<tspan x="10" y="282">    ├─┬ form-data@2.1.4 </tspan>
<tspan x="10" y="298">    │ └── asynckit@0.4.0 </tspan>
<tspan x="10" y="314">    ├─┬ har-validator@4.2.1 </tspan>
<tspan x="10" y="330">    │ ├─┬ ajv@4.11.7 </tspan>
<tspan x="10" y="346">    │ │ ├── co@4.6.0 </tspan>
<tspan x="10" y="362">    │ │ └─┬ json-stable-stringify@1.0.1 </tspan>
<tspan x="10" y="378">    │ │   └── jsonify@0.0.0 </tspan>
<tspan x="10" y="394">    │ └── har-schema@1.0.5 </tspan>
<tspan x="10" y="410">    ├─┬ hawk@3.1.3 </tspan>
<tspan x="10" y="426">    │ ├── boom@2.10.1 </tspan>
<tspan x="10" y="442">    │ ├── cryptiles@2.0.5 </tspan>
<tspan x="10" y="458">    │ ├── hoek@2.16.3 </tspan>
<tspan x="10" y="474">    │ └── sntp@1.0.9 </tspan>
<tspan x="10" y="490">    ├─┬ http-signature@1.1.1 </tspan>
<tspan x="10" y="506">    │ ├── assert-plus@0.2.0 </tspan>
<tspan x="10" y="522">    │ ├─┬ jsprim@1.4.0 </tspan>
<tspan x="10" y="538">    │ │ ├── assert-plus@1.0.0 </tspan>
<tspan x="10" y="554">    │ │ ├── extsprintf@1.0.2 </tspan>
<tspan x="10" y="570">    │ │ ├── json-schema@0.2.3 </tspan>
<tspan x="10" y="586">    │ │ └── verror@1.3.6 </tspan>
<tspan x="10" y="602">    │ └─┬ sshpk@1.13.0 </tspan>
<tspan x="10" y="618">    │   ├── asn1@0.2.3 </tspan>
<tspan x="10" y="634">    │   ├── assert-plus@1.0.0 </tspan>
<tspan x="10" y="650">    │   ├── bcrypt-pbkdf@1.0.1 </tspan>
<tspan x="10" y="666">    │   ├─┬ dashdash@1.14.1 </tspan>
<tspan x="10" y="682">    │   │ └── assert-plus@1.0.0 </tspan>
<tspan x="10" y="698">    │   ├── ecc-jsbn@0.1.1 </tspan>
<tspan x="10" y="714">    │   ├─┬ getpass@0.1.6 </tspan>
<tspan x="10" y="730">    │   │ └── assert-plus@1.0.0 </tspan>
<tspan x="10" y="746">    │   ├── jodid25519@1.0.2 </tspan>
<tspan x="10" y="762">    │   ├── jsbn@0.1.1 </tspan>
<tspan x="10" y="778">    │   └── tweetnacl@0.14.5 </tspan>
<tspan x="10" y="794">    ├── is-typedarray@1.0.0 </tspan>
<tspan x="10" y="810">    ├── isstream@0.1.2 </tspan>
<tspan x="10" y="826">    ├── json-stringify-safe@5.0.1 </tspan>
<tspan x="10" y="842">    ├─┬ mime-types@2.1.15 </tspan>
<tspan x="10" y="858">    │ └── mime-db@1.27.0 </tspan>
<tspan x="10" y="874">    ├── oauth-sign@0.8.2 </tspan>
<tspan x="10" y="890">    ├── performance-now@0.2.0 </tspan>
<tspan x="10" y="906">    ├── qs@6.4.0 </tspan>
<tspan x="10" y="922">    ├── safe-buffer@5.0.1 </tspan>
<tspan x="10" y="938">    ├── stringstream@0.0.5 </tspan>
<tspan x="10" y="954">    ├─┬ tough-cookie@2.3.2 </tspan>
<tspan x="10" y="970">    │ └── punycode@1.4.1 </tspan>
<tspan x="10" y="986">    ├── tunnel-agent@0.6.0 </tspan>
<tspan x="10" y="1002">    └── uuid@3.0.1</tspan>
</text>
</svg>
